<svg width="287" height="55" viewBox="0 0 287 55" fill="none" xmlns="http://www.w3.org/2000/svg">
<g filter="url(#filter0_d)">
<rect x="4" width="279" height="47" rx="19" fill="#85DEEA"/>
<path d="M85.2412 27.7397V33H82.165V18.0703H87.9893C89.1104 18.0703 90.0947 18.2754 90.9424 18.6855C91.7969 19.0957 92.4531 19.6802 92.9111 20.439C93.3691 21.1909 93.5981 22.0488 93.5981 23.0127C93.5981 24.4756 93.0957 25.6309 92.0908 26.4785C91.0928 27.3193 89.7085 27.7397 87.938 27.7397H85.2412ZM85.2412 25.248H87.9893C88.8027 25.248 89.4214 25.0566 89.8452 24.6738C90.2759 24.291 90.4912 23.7441 90.4912 23.0332C90.4912 22.3018 90.2759 21.7104 89.8452 21.2593C89.4146 20.8081 88.8198 20.5757 88.061 20.562H85.2412V25.248ZM107.872 33H104.795V26.6016H98.7969V33H95.7207V18.0703H98.7969V24.1201H104.795V18.0703H107.872V33ZM119.182 29.9238H113.788L112.763 33H109.492L115.049 18.0703H117.9L123.488 33H120.217L119.182 29.9238ZM114.619 27.4321H118.351L116.475 21.8438L114.619 27.4321ZM130.41 27.5347H127.959V33H124.883V18.0703H130.43C132.194 18.0703 133.554 18.4634 134.511 19.2495C135.468 20.0356 135.947 21.1465 135.947 22.582C135.947 23.6006 135.725 24.4517 135.28 25.1353C134.843 25.812 134.176 26.3521 133.281 26.7554L136.511 32.8564V33H133.209L130.41 27.5347ZM127.959 25.043H130.44C131.213 25.043 131.811 24.8481 132.235 24.4585C132.659 24.062 132.871 23.5186 132.871 22.8281C132.871 22.124 132.669 21.5703 132.266 21.167C131.869 20.7637 131.257 20.562 130.43 20.562H127.959V25.043ZM142.314 18.0703L146.149 28.8984L149.964 18.0703H154.004V33H150.917V28.9189L151.225 21.8745L147.195 33H145.083L141.063 21.8848L141.371 28.9189V33H138.295V18.0703H142.314ZM165.304 29.9238H159.91L158.885 33H155.614L161.171 18.0703H164.022L169.61 33H166.339L165.304 29.9238ZM160.741 27.4321H164.473L162.597 21.8438L160.741 27.4321ZM182.5 28.0269C182.383 29.6333 181.789 30.8979 180.715 31.8208C179.649 32.7437 178.241 33.2051 176.491 33.2051C174.577 33.2051 173.069 32.5625 171.969 31.2773C170.875 29.9854 170.328 28.2148 170.328 25.9658V25.0532C170.328 23.6177 170.581 22.353 171.087 21.2593C171.593 20.1655 172.314 19.3281 173.25 18.7471C174.194 18.1592 175.288 17.8652 176.532 17.8652C178.254 17.8652 179.642 18.3267 180.695 19.2495C181.748 20.1724 182.356 21.4678 182.52 23.1357H179.444C179.369 22.1719 179.099 21.4746 178.634 21.0439C178.176 20.6064 177.475 20.3877 176.532 20.3877C175.506 20.3877 174.737 20.7568 174.225 21.4951C173.719 22.2266 173.459 23.3647 173.445 24.9097V26.0376C173.445 27.6509 173.688 28.8301 174.173 29.5752C174.666 30.3203 175.438 30.6929 176.491 30.6929C177.441 30.6929 178.148 30.4775 178.613 30.0469C179.085 29.6094 179.355 28.936 179.423 28.0269H182.5ZM189.667 24.7969L192.774 18.0703H196.137L191.236 27.5859V33H188.108V27.5859L183.207 18.0703H186.581L189.667 24.7969Z" fill="black"/>
</g>
<defs>
<filter id="filter0_d" x="0" y="0" width="287" height="55" filterUnits="userSpaceOnUse" color-interpolation-filters="sRGB">
<feFlood flood-opacity="0" result="BackgroundImageFix"/>
<feColorMatrix in="SourceAlpha" type="matrix" values="0 0 0 0 0 0 0 0 0 0 0 0 0 0 0 0 0 0 127 0"/>
<feOffset dy="4"/>
<feGaussianBlur stdDeviation="2"/>
<feColorMatrix type="matrix" values="0 0 0 0 0 0 0 0 0 0 0 0 0 0 0 0 0 0 0.25 0"/>
<feBlend mode="normal" in2="BackgroundImageFix" result="effect1_dropShadow"/>
<feBlend mode="normal" in="SourceGraphic" in2="effect1_dropShadow" result="shape"/>
</filter>
</defs>
</svg>
