<svg width="287" height="55" viewBox="0 0 287 55" fill="none" xmlns="http://www.w3.org/2000/svg">
<g filter="url(#filter0_d)">
<rect x="4" width="279" height="47" rx="19" fill="#85DEEA"/>
<path d="M110.384 29.083C110.384 28.502 110.179 28.0576 109.769 27.75C109.358 27.4355 108.62 27.1074 107.554 26.7656C106.487 26.417 105.643 26.0752 105.021 25.7402C103.326 24.8242 102.478 23.5903 102.478 22.0386C102.478 21.2319 102.704 20.5142 103.155 19.8853C103.613 19.2495 104.266 18.7539 105.113 18.3984C105.968 18.043 106.925 17.8652 107.984 17.8652C109.051 17.8652 110.001 18.0601 110.835 18.4497C111.669 18.8325 112.315 19.376 112.773 20.0801C113.238 20.7842 113.47 21.584 113.47 22.4795H110.394C110.394 21.7959 110.179 21.2661 109.748 20.8901C109.317 20.5073 108.712 20.3159 107.933 20.3159C107.181 20.3159 106.597 20.4766 106.18 20.7979C105.763 21.1123 105.554 21.5293 105.554 22.0488C105.554 22.5342 105.797 22.9409 106.282 23.269C106.774 23.5972 107.496 23.9048 108.446 24.1919C110.196 24.7183 111.471 25.3711 112.271 26.1504C113.07 26.9297 113.47 27.9004 113.47 29.0625C113.47 30.3545 112.981 31.3696 112.004 32.1079C111.026 32.8394 109.71 33.2051 108.056 33.2051C106.908 33.2051 105.862 32.9966 104.918 32.5796C103.975 32.1558 103.254 31.5781 102.755 30.8467C102.263 30.1152 102.017 29.2676 102.017 28.3037H105.103C105.103 29.9512 106.087 30.7749 108.056 30.7749C108.788 30.7749 109.358 30.6279 109.769 30.334C110.179 30.0332 110.384 29.6162 110.384 29.083ZM118.833 33H115.757V18.0703H118.833V33ZM133.506 31.1133C132.953 31.7764 132.17 32.2925 131.158 32.6616C130.146 33.0239 129.025 33.2051 127.795 33.2051C126.503 33.2051 125.368 32.9248 124.391 32.3643C123.42 31.7969 122.668 30.9766 122.135 29.9033C121.608 28.8301 121.338 27.5688 121.325 26.1196V25.1045C121.325 23.6143 121.574 22.3257 122.073 21.2388C122.579 20.145 123.304 19.311 124.247 18.7368C125.197 18.1558 126.308 17.8652 127.58 17.8652C129.35 17.8652 130.734 18.2891 131.732 19.1367C132.73 19.9775 133.322 21.2046 133.506 22.8179H130.512C130.375 21.9634 130.071 21.3379 129.6 20.9414C129.135 20.5449 128.492 20.3467 127.672 20.3467C126.626 20.3467 125.83 20.7397 125.283 21.5259C124.736 22.312 124.459 23.481 124.452 25.0327V25.9863C124.452 27.5518 124.75 28.7344 125.344 29.5342C125.939 30.334 126.811 30.7339 127.959 30.7339C129.114 30.7339 129.938 30.4878 130.43 29.9956V27.4219H127.631V25.1558H133.506V31.1133ZM148.149 33H145.073L139.084 23.1768V33H136.008V18.0703H139.084L145.083 27.9141V18.0703H148.149V33ZM159.336 33H156.26V18.0703H159.336V33ZM174.337 33H171.261L165.273 23.1768V33H162.197V18.0703H165.273L171.271 27.9141V18.0703H174.337V33Z" fill="black"/>
</g>
<defs>
<filter id="filter0_d" x="0" y="0" width="287" height="55" filterUnits="userSpaceOnUse" color-interpolation-filters="sRGB">
<feFlood flood-opacity="0" result="BackgroundImageFix"/>
<feColorMatrix in="SourceAlpha" type="matrix" values="0 0 0 0 0 0 0 0 0 0 0 0 0 0 0 0 0 0 127 0"/>
<feOffset dy="4"/>
<feGaussianBlur stdDeviation="2"/>
<feColorMatrix type="matrix" values="0 0 0 0 0 0 0 0 0 0 0 0 0 0 0 0 0 0 0.25 0"/>
<feBlend mode="normal" in2="BackgroundImageFix" result="effect1_dropShadow"/>
<feBlend mode="normal" in="SourceGraphic" in2="effect1_dropShadow" result="shape"/>
</filter>
</defs>
</svg>
