<svg width="279" height="47" viewBox="0 0 279 47" fill="none" xmlns="http://www.w3.org/2000/svg">
<rect width="279" height="47" rx="19" fill="#85DEEA"/>
<path d="M63.0815 30.5288H69.6133V33H60.0054V18.0703H63.0815V30.5288ZM82.9946 25.8735C82.9946 27.3433 82.7349 28.6318 82.2153 29.7393C81.6958 30.8467 80.9507 31.7012 79.98 32.3027C79.0161 32.9043 77.9087 33.2051 76.6577 33.2051C75.4204 33.2051 74.3164 32.9077 73.3457 32.313C72.375 31.7183 71.623 30.8706 71.0898 29.77C70.5566 28.6626 70.2866 27.3911 70.2798 25.9556V25.2173C70.2798 23.7476 70.543 22.4556 71.0693 21.3413C71.6025 20.2202 72.3511 19.3623 73.3149 18.7676C74.2856 18.166 75.3931 17.8652 76.6372 17.8652C77.8813 17.8652 78.9854 18.166 79.9492 18.7676C80.9199 19.3623 81.6685 20.2202 82.1948 21.3413C82.728 22.4556 82.9946 23.7441 82.9946 25.207V25.8735ZM79.8774 25.1968C79.8774 23.6313 79.5972 22.4419 79.0366 21.6284C78.4761 20.8149 77.6763 20.4082 76.6372 20.4082C75.605 20.4082 74.8086 20.8115 74.248 21.6182C73.6875 22.418 73.4038 23.5938 73.397 25.1455V25.8735C73.397 27.3979 73.6772 28.5806 74.2378 29.4214C74.7983 30.2622 75.605 30.6826 76.6577 30.6826C77.6899 30.6826 78.4829 30.2793 79.0366 29.4727C79.5903 28.6592 79.8706 27.4766 79.8774 25.9248V25.1968ZM96.9502 28.0269C96.834 29.6333 96.2393 30.8979 95.166 31.8208C94.0996 32.7437 92.6914 33.2051 90.9414 33.2051C89.0273 33.2051 87.52 32.5625 86.4194 31.2773C85.3257 29.9854 84.7788 28.2148 84.7788 25.9658V25.0532C84.7788 23.6177 85.0317 22.353 85.5376 21.2593C86.0435 20.1655 86.7646 19.3281 87.7012 18.7471C88.6445 18.1592 89.7383 17.8652 90.9824 17.8652C92.7051 17.8652 94.0928 18.3267 95.1455 19.2495C96.1982 20.1724 96.8066 21.4678 96.9707 23.1357H93.8945C93.8193 22.1719 93.5493 21.4746 93.0845 21.0439C92.6265 20.6064 91.9258 20.3877 90.9824 20.3877C89.957 20.3877 89.188 20.7568 88.6753 21.4951C88.1694 22.2266 87.9097 23.3647 87.896 24.9097V26.0376C87.896 27.6509 88.1387 28.8301 88.624 29.5752C89.1162 30.3203 89.8887 30.6929 90.9414 30.6929C91.8916 30.6929 92.5991 30.4775 93.064 30.0469C93.5356 29.6094 93.8057 28.936 93.874 28.0269H96.9502ZM107.399 29.9238H102.005L100.98 33H97.709L103.267 18.0703H106.117L111.706 33H108.435L107.399 29.9238ZM102.836 27.4321H106.568L104.692 21.8438L102.836 27.4321ZM116.176 30.5288H122.708V33H113.1V18.0703H116.176V30.5288ZM135.228 29.2983L138.612 18.0703H142.037L136.838 33H133.628L128.45 18.0703H131.865L135.228 29.2983ZM152.434 26.5298H146.528V30.5288H153.459V33H143.452V18.0703H153.439V20.562H146.528V24.1201H152.434V26.5298ZM167.405 33H164.329L158.34 23.1768V33H155.264V18.0703H158.34L164.339 27.9141V18.0703H167.405V33ZM170.091 33V18.0703H174.685C175.998 18.0703 177.17 18.3677 178.202 18.9624C179.241 19.5503 180.051 20.3911 180.632 21.4849C181.213 22.5718 181.504 23.8091 181.504 25.1968V25.8838C181.504 27.2715 181.217 28.5054 180.643 29.5854C180.075 30.6655 179.272 31.5029 178.233 32.0977C177.194 32.6924 176.021 32.9932 174.716 33H170.091ZM173.167 20.562V30.5288H174.654C175.857 30.5288 176.777 30.1357 177.413 29.3496C178.048 28.5635 178.373 27.439 178.387 25.9761V25.1865C178.387 23.6689 178.072 22.5205 177.443 21.7412C176.814 20.9551 175.895 20.562 174.685 20.562H173.167ZM196.013 25.8735C196.013 27.3433 195.753 28.6318 195.234 29.7393C194.714 30.8467 193.969 31.7012 192.999 32.3027C192.035 32.9043 190.927 33.2051 189.676 33.2051C188.439 33.2051 187.335 32.9077 186.364 32.313C185.394 31.7183 184.642 30.8706 184.108 29.77C183.575 28.6626 183.305 27.3911 183.298 25.9556V25.2173C183.298 23.7476 183.562 22.4556 184.088 21.3413C184.621 20.2202 185.37 19.3623 186.333 18.7676C187.304 18.166 188.412 17.8652 189.656 17.8652C190.9 17.8652 192.004 18.166 192.968 18.7676C193.938 19.3623 194.687 20.2202 195.213 21.3413C195.747 22.4556 196.013 23.7441 196.013 25.207V25.8735ZM192.896 25.1968C192.896 23.6313 192.616 22.4419 192.055 21.6284C191.495 20.8149 190.695 20.4082 189.656 20.4082C188.624 20.4082 187.827 20.8115 187.267 21.6182C186.706 22.418 186.422 23.5938 186.416 25.1455V25.8735C186.416 27.3979 186.696 28.5806 187.256 29.4214C187.817 30.2622 188.624 30.6826 189.676 30.6826C190.708 30.6826 191.501 30.2793 192.055 29.4727C192.609 28.6592 192.889 27.4766 192.896 25.9248V25.1968ZM203.775 27.5347H201.325V33H198.249V18.0703H203.796C205.56 18.0703 206.92 18.4634 207.877 19.2495C208.834 20.0356 209.312 21.1465 209.312 22.582C209.312 23.6006 209.09 24.4517 208.646 25.1353C208.208 25.812 207.542 26.3521 206.646 26.7554L209.876 32.8564V33H206.575L203.775 27.5347ZM201.325 25.043H203.806C204.579 25.043 205.177 24.8481 205.601 24.4585C206.024 24.062 206.236 23.5186 206.236 22.8281C206.236 22.124 206.035 21.5703 205.631 21.167C205.235 20.7637 204.623 20.562 203.796 20.562H201.325V25.043Z" fill="black"/>
</svg>
