<svg width="232" height="41" viewBox="0 0 232 41" fill="none" xmlns="http://www.w3.org/2000/svg">
<rect x="4" width="224" height="41" rx="14" fill="#29FEFE"/>
<path d="M33.225 16.275L31.75 17.75L40 26L48.25 17.75L46.775 16.275L40 23.05L33.225 16.275Z" fill="black"/>
<path d="M71.5801 16.0703L75.415 26.8984L79.2295 16.0703H83.2695V31H80.1831V26.9189L80.4907 19.8745L76.4609 31H74.3486L70.3291 19.8848L70.6367 26.9189V31H67.5605V16.0703H71.5801ZM93.6978 27.083C93.6978 26.502 93.4927 26.0576 93.0825 25.75C92.6724 25.4355 91.9341 25.1074 90.8677 24.7656C89.8013 24.417 88.957 24.0752 88.335 23.7402C86.6396 22.8242 85.792 21.5903 85.792 20.0386C85.792 19.2319 86.0176 18.5142 86.4688 17.8853C86.9268 17.2495 87.5796 16.7539 88.4272 16.3984C89.2817 16.043 90.2388 15.8652 91.2983 15.8652C92.3647 15.8652 93.3149 16.0601 94.1489 16.4497C94.9829 16.8325 95.6289 17.376 96.0869 18.0801C96.5518 18.7842 96.7842 19.584 96.7842 20.4795H93.708C93.708 19.7959 93.4927 19.2661 93.062 18.8901C92.6313 18.5073 92.0264 18.3159 91.2471 18.3159C90.4951 18.3159 89.9106 18.4766 89.4937 18.7979C89.0767 19.1123 88.8682 19.5293 88.8682 20.0488C88.8682 20.5342 89.1108 20.9409 89.5962 21.269C90.0884 21.5972 90.8096 21.9048 91.7598 22.1919C93.5098 22.7183 94.7847 23.3711 95.5845 24.1504C96.3843 24.9297 96.7842 25.9004 96.7842 27.0625C96.7842 28.3545 96.2954 29.3696 95.3179 30.1079C94.3403 30.8394 93.0244 31.2051 91.3701 31.2051C90.2217 31.2051 89.1758 30.9966 88.2324 30.5796C87.2891 30.1558 86.5679 29.5781 86.0688 28.8467C85.5767 28.1152 85.3306 27.2676 85.3306 26.3037H88.417C88.417 27.9512 89.4014 28.7749 91.3701 28.7749C92.1016 28.7749 92.6724 28.6279 93.0825 28.334C93.4927 28.0332 93.6978 27.6162 93.6978 27.083ZM98.835 29.5439C98.835 29.0723 98.9922 28.6895 99.3066 28.3955C99.6279 28.1016 100.028 27.9546 100.506 27.9546C100.992 27.9546 101.392 28.1016 101.706 28.3955C102.027 28.6895 102.188 29.0723 102.188 29.5439C102.188 30.0088 102.031 30.3882 101.716 30.6821C101.402 30.9692 100.999 31.1128 100.506 31.1128C100.021 31.1128 99.6211 30.9692 99.3066 30.6821C98.9922 30.3882 98.835 30.0088 98.835 29.5439ZM110.33 21.2178L113.129 16.0703H116.667L112.319 23.4736L116.779 31H113.201L110.33 25.7705L107.458 31H103.88L108.34 23.4736L103.993 16.0703H107.53L110.33 21.2178ZM126.767 27.9238H121.373L120.348 31H117.077L122.634 16.0703H125.485L131.073 31H127.802L126.767 27.9238ZM122.204 25.4321H125.936L124.06 19.8438L122.204 25.4321ZM135.739 31H132.663V16.0703H135.739V31ZM150.75 31H147.674V24.6016H141.676V31H138.6V16.0703H141.676V22.1201H147.674V16.0703H150.75V31ZM153.447 31V16.0703H158.041C159.354 16.0703 160.526 16.3677 161.558 16.9624C162.597 17.5503 163.407 18.3911 163.988 19.4849C164.569 20.5718 164.86 21.8091 164.86 23.1968V23.8838C164.86 25.2715 164.573 26.5054 163.999 27.5854C163.431 28.6655 162.628 29.5029 161.589 30.0977C160.55 30.6924 159.377 30.9932 158.072 31H153.447ZM156.523 18.562V28.5288H158.01C159.213 28.5288 160.133 28.1357 160.769 27.3496C161.404 26.5635 161.729 25.439 161.743 23.9761V23.1865C161.743 21.6689 161.428 20.5205 160.799 19.7412C160.17 18.9551 159.251 18.562 158.041 18.562H156.523Z" fill="black"/>
</svg>
