<svg width="287" height="55" viewBox="0 0 287 55" fill="none" xmlns="http://www.w3.org/2000/svg">
<g filter="url(#filter0_d)">
<rect x="4" width="279" height="47" rx="19" fill="#85DEEA"/>
<path d="M107.174 29.083C107.174 28.502 106.969 28.0576 106.559 27.75C106.149 27.4355 105.411 27.1074 104.344 26.7656C103.278 26.417 102.434 26.0752 101.812 25.7402C100.116 24.8242 99.2686 23.5903 99.2686 22.0386C99.2686 21.2319 99.4941 20.5142 99.9453 19.8853C100.403 19.2495 101.056 18.7539 101.904 18.3984C102.758 18.043 103.715 17.8652 104.775 17.8652C105.841 17.8652 106.792 18.0601 107.625 18.4497C108.459 18.8325 109.105 19.376 109.563 20.0801C110.028 20.7842 110.261 21.584 110.261 22.4795H107.185C107.185 21.7959 106.969 21.2661 106.539 20.8901C106.108 20.5073 105.503 20.3159 104.724 20.3159C103.972 20.3159 103.387 20.4766 102.97 20.7979C102.553 21.1123 102.345 21.5293 102.345 22.0488C102.345 22.5342 102.587 22.9409 103.073 23.269C103.565 23.5972 104.286 23.9048 105.236 24.1919C106.986 24.7183 108.261 25.3711 109.061 26.1504C109.861 26.9297 110.261 27.9004 110.261 29.0625C110.261 30.3545 109.772 31.3696 108.794 32.1079C107.817 32.8394 106.501 33.2051 104.847 33.2051C103.698 33.2051 102.652 32.9966 101.709 32.5796C100.766 32.1558 100.044 31.5781 99.5454 30.8467C99.0532 30.1152 98.8071 29.2676 98.8071 28.3037H101.894C101.894 29.9512 102.878 30.7749 104.847 30.7749C105.578 30.7749 106.149 30.6279 106.559 30.334C106.969 30.0332 107.174 29.6162 107.174 29.083ZM115.624 33H112.547V18.0703H115.624V33ZM130.297 31.1133C129.743 31.7764 128.96 32.2925 127.949 32.6616C126.937 33.0239 125.816 33.2051 124.585 33.2051C123.293 33.2051 122.159 32.9248 121.181 32.3643C120.21 31.7969 119.458 30.9766 118.925 29.9033C118.399 28.8301 118.129 27.5688 118.115 26.1196V25.1045C118.115 23.6143 118.365 22.3257 118.864 21.2388C119.37 20.145 120.094 19.311 121.038 18.7368C121.988 18.1558 123.099 17.8652 124.37 17.8652C126.141 17.8652 127.525 18.2891 128.523 19.1367C129.521 19.9775 130.112 21.2046 130.297 22.8179H127.303C127.166 21.9634 126.862 21.3379 126.39 20.9414C125.925 20.5449 125.283 20.3467 124.462 20.3467C123.417 20.3467 122.62 20.7397 122.073 21.5259C121.526 22.312 121.25 23.481 121.243 25.0327V25.9863C121.243 27.5518 121.54 28.7344 122.135 29.5342C122.729 30.334 123.601 30.7339 124.75 30.7339C125.905 30.7339 126.729 30.4878 127.221 29.9956V27.4219H124.421V25.1558H130.297V31.1133ZM144.939 33H141.863L135.875 23.1768V33H132.799V18.0703H135.875L141.874 27.9141V18.0703H144.939V33ZM164.155 18.0703V27.9038C164.155 29.5376 163.643 30.8296 162.617 31.7798C161.599 32.73 160.204 33.2051 158.434 33.2051C156.69 33.2051 155.306 32.7437 154.281 31.8208C153.255 30.8979 152.732 29.6299 152.712 28.0166V18.0703H155.788V27.9243C155.788 28.9019 156.021 29.6162 156.485 30.0674C156.957 30.5117 157.606 30.7339 158.434 30.7339C160.163 30.7339 161.042 29.8247 161.069 28.0063V18.0703H164.155ZM169.754 27.7397V33H166.678V18.0703H172.502C173.623 18.0703 174.607 18.2754 175.455 18.6855C176.31 19.0957 176.966 19.6802 177.424 20.439C177.882 21.1909 178.111 22.0488 178.111 23.0127C178.111 24.4756 177.608 25.6309 176.604 26.4785C175.605 27.3193 174.221 27.7397 172.451 27.7397H169.754ZM169.754 25.248H172.502C173.315 25.248 173.934 25.0566 174.358 24.6738C174.789 24.291 175.004 23.7441 175.004 23.0332C175.004 22.3018 174.789 21.7104 174.358 21.2593C173.927 20.8081 173.333 20.5757 172.574 20.562H169.754V25.248Z" fill="black"/>
</g>
<defs>
<filter id="filter0_d" x="0" y="0" width="287" height="55" filterUnits="userSpaceOnUse" color-interpolation-filters="sRGB">
<feFlood flood-opacity="0" result="BackgroundImageFix"/>
<feColorMatrix in="SourceAlpha" type="matrix" values="0 0 0 0 0 0 0 0 0 0 0 0 0 0 0 0 0 0 127 0"/>
<feOffset dy="4"/>
<feGaussianBlur stdDeviation="2"/>
<feColorMatrix type="matrix" values="0 0 0 0 0 0 0 0 0 0 0 0 0 0 0 0 0 0 0.25 0"/>
<feBlend mode="normal" in2="BackgroundImageFix" result="effect1_dropShadow"/>
<feBlend mode="normal" in="SourceGraphic" in2="effect1_dropShadow" result="shape"/>
</filter>
</defs>
</svg>
