<svg width="177" height="48" viewBox="0 0 177 48" fill="none" xmlns="http://www.w3.org/2000/svg">
<g filter="url(#filter0_d)">
<rect x="4" width="169" height="40" rx="7" fill="#439EAA"/>
</g>
<path d="M64.041 20.7373C63.9414 22.1143 63.4316 23.1982 62.5117 23.9893C61.5977 24.7803 60.3906 25.1758 58.8906 25.1758C57.25 25.1758 55.958 24.625 55.0146 23.5234C54.0771 22.416 53.6084 20.8984 53.6084 18.9707V18.1885C53.6084 16.958 53.8252 15.874 54.2588 14.9365C54.6924 13.999 55.3105 13.2812 56.1133 12.7832C56.9219 12.2793 57.8594 12.0273 58.9258 12.0273C60.4023 12.0273 61.5918 12.4229 62.4941 13.2139C63.3965 14.0049 63.918 15.1152 64.0586 16.5449H61.4219C61.3574 15.7188 61.126 15.1211 60.7275 14.752C60.335 14.377 59.7344 14.1895 58.9258 14.1895C58.0469 14.1895 57.3877 14.5059 56.9482 15.1387C56.5146 15.7656 56.292 16.7412 56.2803 18.0654V19.0322C56.2803 20.415 56.4883 21.4258 56.9043 22.0645C57.3262 22.7031 57.9883 23.0225 58.8906 23.0225C59.7051 23.0225 60.3115 22.8379 60.71 22.4688C61.1143 22.0938 61.3457 21.5166 61.4043 20.7373H64.041ZM76.2842 18.8916C76.2842 20.1514 76.0615 21.2559 75.6162 22.2051C75.1709 23.1543 74.5322 23.8867 73.7002 24.4023C72.874 24.918 71.9248 25.1758 70.8525 25.1758C69.792 25.1758 68.8457 24.9209 68.0137 24.4111C67.1816 23.9014 66.5371 23.1748 66.0801 22.2314C65.623 21.2822 65.3916 20.1924 65.3857 18.9619V18.3291C65.3857 17.0693 65.6113 15.9619 66.0625 15.0068C66.5195 14.0459 67.1611 13.3105 67.9873 12.8008C68.8193 12.2852 69.7686 12.0273 70.835 12.0273C71.9014 12.0273 72.8477 12.2852 73.6738 12.8008C74.5059 13.3105 75.1475 14.0459 75.5986 15.0068C76.0557 15.9619 76.2842 17.0664 76.2842 18.3203V18.8916ZM73.6123 18.3115C73.6123 16.9697 73.3721 15.9502 72.8916 15.2529C72.4111 14.5557 71.7256 14.207 70.835 14.207C69.9502 14.207 69.2676 14.5527 68.7871 15.2441C68.3066 15.9297 68.0635 16.9375 68.0576 18.2676V18.8916C68.0576 20.1982 68.2979 21.2119 68.7783 21.9326C69.2588 22.6533 69.9502 23.0137 70.8525 23.0137C71.7373 23.0137 72.417 22.668 72.8916 21.9766C73.3662 21.2793 73.6064 20.2656 73.6123 18.9355V18.3115ZM88.6064 25H85.9697L80.8369 16.5801V25H78.2002V12.2031H80.8369L85.9785 20.6406V12.2031H88.6064V25ZM98.6084 19.7705H93.5459V25H90.9092V12.2031H99.2412V14.3389H93.5459V17.6436H98.6084V19.7705ZM103.574 25H100.938V12.2031H103.574V25ZM110.764 20.3154H108.663V25H106.026V12.2031H110.781C112.293 12.2031 113.459 12.54 114.279 13.2139C115.1 13.8877 115.51 14.8398 115.51 16.0703C115.51 16.9434 115.319 17.6729 114.938 18.2588C114.563 18.8389 113.992 19.3018 113.225 19.6475L115.993 24.877V25H113.163L110.764 20.3154ZM108.663 18.1797H110.79C111.452 18.1797 111.965 18.0127 112.328 17.6787C112.691 17.3389 112.873 16.873 112.873 16.2812C112.873 15.6777 112.7 15.2031 112.354 14.8574C112.015 14.5117 111.49 14.3389 110.781 14.3389H108.663V18.1797ZM120.968 12.2031L124.255 21.4844L127.524 12.2031H130.987V25H128.342V21.502L128.605 15.4639L125.151 25H123.341L119.896 15.4727L120.159 21.502V25H117.522V12.2031H120.968Z" fill="#29FEFE"/>
<defs>
<filter id="filter0_d" x="0" y="0" width="177" height="48" filterUnits="userSpaceOnUse" color-interpolation-filters="sRGB">
<feFlood flood-opacity="0" result="BackgroundImageFix"/>
<feColorMatrix in="SourceAlpha" type="matrix" values="0 0 0 0 0 0 0 0 0 0 0 0 0 0 0 0 0 0 127 0"/>
<feOffset dy="4"/>
<feGaussianBlur stdDeviation="2"/>
<feColorMatrix type="matrix" values="0 0 0 0 0 0 0 0 0 0 0 0 0 0 0 0 0 0 0.25 0"/>
<feBlend mode="normal" in2="BackgroundImageFix" result="effect1_dropShadow"/>
<feBlend mode="normal" in="SourceGraphic" in2="effect1_dropShadow" result="shape"/>
</filter>
</defs>
</svg>
