<svg width="279" height="47" viewBox="0 0 279 47" fill="none" xmlns="http://www.w3.org/2000/svg">
<rect width="279" height="47" rx="19" fill="#85DEEA"/>
<path d="M81.2412 27.7397V33H78.165V18.0703H83.9893C85.1104 18.0703 86.0947 18.2754 86.9424 18.6855C87.7969 19.0957 88.4531 19.6802 88.9111 20.439C89.3691 21.1909 89.5981 22.0488 89.5981 23.0127C89.5981 24.4756 89.0957 25.6309 88.0908 26.4785C87.0928 27.3193 85.7085 27.7397 83.938 27.7397H81.2412ZM81.2412 25.248H83.9893C84.8027 25.248 85.4214 25.0566 85.8452 24.6738C86.2759 24.291 86.4912 23.7441 86.4912 23.0332C86.4912 22.3018 86.2759 21.7104 85.8452 21.2593C85.4146 20.8081 84.8198 20.5757 84.061 20.562H81.2412V25.248ZM103.872 33H100.795V26.6016H94.7969V33H91.7207V18.0703H94.7969V24.1201H100.795V18.0703H103.872V33ZM115.182 29.9238H109.788L108.763 33H105.492L111.049 18.0703H113.9L119.488 33H116.217L115.182 29.9238ZM110.619 27.4321H114.351L112.475 21.8438L110.619 27.4321ZM126.41 27.5347H123.959V33H120.883V18.0703H126.43C128.194 18.0703 129.554 18.4634 130.511 19.2495C131.468 20.0356 131.947 21.1465 131.947 22.582C131.947 23.6006 131.725 24.4517 131.28 25.1353C130.843 25.812 130.176 26.3521 129.281 26.7554L132.511 32.8564V33H129.209L126.41 27.5347ZM123.959 25.043H126.44C127.213 25.043 127.811 24.8481 128.235 24.4585C128.659 24.062 128.871 23.5186 128.871 22.8281C128.871 22.124 128.669 21.5703 128.266 21.167C127.869 20.7637 127.257 20.562 126.43 20.562H123.959V25.043ZM138.314 18.0703L142.149 28.8984L145.964 18.0703H150.004V33H146.917V28.9189L147.225 21.8745L143.195 33H141.083L137.063 21.8848L137.371 28.9189V33H134.295V18.0703H138.314ZM161.304 29.9238H155.91L154.885 33H151.614L157.171 18.0703H160.022L165.61 33H162.339L161.304 29.9238ZM156.741 27.4321H160.473L158.597 21.8438L156.741 27.4321ZM178.5 28.0269C178.383 29.6333 177.789 30.8979 176.715 31.8208C175.649 32.7437 174.241 33.2051 172.491 33.2051C170.577 33.2051 169.069 32.5625 167.969 31.2773C166.875 29.9854 166.328 28.2148 166.328 25.9658V25.0532C166.328 23.6177 166.581 22.353 167.087 21.2593C167.593 20.1655 168.314 19.3281 169.25 18.7471C170.194 18.1592 171.288 17.8652 172.532 17.8652C174.254 17.8652 175.642 18.3267 176.695 19.2495C177.748 20.1724 178.356 21.4678 178.52 23.1357H175.444C175.369 22.1719 175.099 21.4746 174.634 21.0439C174.176 20.6064 173.475 20.3877 172.532 20.3877C171.506 20.3877 170.737 20.7568 170.225 21.4951C169.719 22.2266 169.459 23.3647 169.445 24.9097V26.0376C169.445 27.6509 169.688 28.8301 170.173 29.5752C170.666 30.3203 171.438 30.6929 172.491 30.6929C173.441 30.6929 174.148 30.4775 174.613 30.0469C175.085 29.6094 175.355 28.936 175.423 28.0269H178.5ZM185.667 24.7969L188.774 18.0703H192.137L187.236 27.5859V33H184.108V27.5859L179.207 18.0703H182.581L185.667 24.7969Z" fill="black"/>
</svg>
