<svg width="287" height="55" viewBox="0 0 287 55" fill="none" xmlns="http://www.w3.org/2000/svg">
<g filter="url(#filter0_d)">
<rect x="4" width="279" height="47" rx="19" fill="#85DEEA"/>
<path d="M66.1997 29.083C66.1997 28.502 65.9946 28.0576 65.5845 27.75C65.1743 27.4355 64.436 27.1074 63.3696 26.7656C62.3032 26.417 61.459 26.0752 60.8369 25.7402C59.1416 24.8242 58.2939 23.5903 58.2939 22.0386C58.2939 21.2319 58.5195 20.5142 58.9707 19.8853C59.4287 19.2495 60.0815 18.7539 60.9292 18.3984C61.7837 18.043 62.7407 17.8652 63.8003 17.8652C64.8667 17.8652 65.8169 18.0601 66.6509 18.4497C67.4849 18.8325 68.1309 19.376 68.5889 20.0801C69.0537 20.7842 69.2861 21.584 69.2861 22.4795H66.21C66.21 21.7959 65.9946 21.2661 65.564 20.8901C65.1333 20.5073 64.5283 20.3159 63.749 20.3159C62.9971 20.3159 62.4126 20.4766 61.9956 20.7979C61.5786 21.1123 61.3701 21.5293 61.3701 22.0488C61.3701 22.5342 61.6128 22.9409 62.0981 23.269C62.5903 23.5972 63.3115 23.9048 64.2617 24.1919C66.0117 24.7183 67.2866 25.3711 68.0864 26.1504C68.8862 26.9297 69.2861 27.9004 69.2861 29.0625C69.2861 30.3545 68.7974 31.3696 67.8198 32.1079C66.8423 32.8394 65.5264 33.2051 63.8721 33.2051C62.7236 33.2051 61.6777 32.9966 60.7344 32.5796C59.791 32.1558 59.0698 31.5781 58.5708 30.8467C58.0786 30.1152 57.8325 29.2676 57.8325 28.3037H60.9189C60.9189 29.9512 61.9033 30.7749 63.8721 30.7749C64.6035 30.7749 65.1743 30.6279 65.5845 30.334C65.9946 30.0332 66.1997 29.6162 66.1997 29.083ZM82.6777 18.0703V27.9038C82.6777 29.5376 82.165 30.8296 81.1396 31.7798C80.1211 32.73 78.7266 33.2051 76.9561 33.2051C75.2129 33.2051 73.8286 32.7437 72.8032 31.8208C71.7778 30.8979 71.2549 29.6299 71.2344 28.0166V18.0703H74.3105V27.9243C74.3105 28.9019 74.543 29.6162 75.0078 30.0674C75.4795 30.5117 76.1289 30.7339 76.9561 30.7339C78.6855 30.7339 79.564 29.8247 79.5913 28.0063V18.0703H82.6777ZM88.2764 27.7397V33H85.2002V18.0703H91.0244C92.1455 18.0703 93.1299 18.2754 93.9775 18.6855C94.832 19.0957 95.4883 19.6802 95.9463 20.439C96.4043 21.1909 96.6333 22.0488 96.6333 23.0127C96.6333 24.4756 96.1309 25.6309 95.126 26.4785C94.1279 27.3193 92.7437 27.7397 90.9731 27.7397H88.2764ZM88.2764 25.248H91.0244C91.8379 25.248 92.4565 25.0566 92.8804 24.6738C93.311 24.291 93.5264 23.7441 93.5264 23.0332C93.5264 22.3018 93.311 21.7104 92.8804 21.2593C92.4497 20.8081 91.855 20.5757 91.0962 20.562H88.2764V25.248ZM107.738 26.5298H101.832V30.5288H108.764V33H98.7559V18.0703H108.743V20.562H101.832V24.1201H107.738V26.5298ZM116.095 27.5347H113.645V33H110.568V18.0703H116.116C117.879 18.0703 119.24 18.4634 120.197 19.2495C121.154 20.0356 121.632 21.1465 121.632 22.582C121.632 23.6006 121.41 24.4517 120.966 25.1353C120.528 25.812 119.862 26.3521 118.966 26.7554L122.196 32.8564V33H118.895L116.095 27.5347ZM113.645 25.043H116.126C116.898 25.043 117.497 24.8481 117.92 24.4585C118.344 24.062 118.556 23.5186 118.556 22.8281C118.556 22.124 118.354 21.5703 117.951 21.167C117.555 20.7637 116.943 20.562 116.116 20.562H113.645V25.043ZM128 18.0703L131.835 28.8984L135.649 18.0703H139.689V33H136.603V28.9189L136.911 21.8745L132.881 33H130.769L126.749 21.8848L127.057 28.9189V33H123.98V18.0703H128ZM150.989 29.9238H145.596L144.57 33H141.299L146.857 18.0703H149.708L155.296 33H152.025L150.989 29.9238ZM146.426 27.4321H150.159L148.282 21.8438L146.426 27.4321ZM162.217 27.5347H159.767V33H156.69V18.0703H162.238C164.001 18.0703 165.362 18.4634 166.319 19.2495C167.276 20.0356 167.754 21.1465 167.754 22.582C167.754 23.6006 167.532 24.4517 167.088 25.1353C166.65 25.812 165.984 26.3521 165.088 26.7554L168.318 32.8564V33H165.017L162.217 27.5347ZM159.767 25.043H162.248C163.021 25.043 163.619 24.8481 164.042 24.4585C164.466 24.062 164.678 23.5186 164.678 22.8281C164.678 22.124 164.477 21.5703 164.073 21.167C163.677 20.7637 163.065 20.562 162.238 20.562H159.767V25.043ZM174.778 27.0117L173.179 28.7344V33H170.103V18.0703H173.179V24.8379L174.532 22.9819L178.336 18.0703H182.12L176.819 24.7046L182.274 33H178.613L174.778 27.0117ZM192.415 26.5298H186.509V30.5288H193.44V33H183.433V18.0703H193.42V20.562H186.509V24.1201H192.415V26.5298ZM206.688 20.562H202.115V33H199.039V20.562H194.527V18.0703H206.688V20.562ZM216.03 29.083C216.03 28.502 215.825 28.0576 215.415 27.75C215.004 27.4355 214.266 27.1074 213.2 26.7656C212.133 26.417 211.289 26.0752 210.667 25.7402C208.972 24.8242 208.124 23.5903 208.124 22.0386C208.124 21.2319 208.35 20.5142 208.801 19.8853C209.259 19.2495 209.912 18.7539 210.759 18.3984C211.614 18.043 212.571 17.8652 213.63 17.8652C214.697 17.8652 215.647 18.0601 216.481 18.4497C217.315 18.8325 217.961 19.376 218.419 20.0801C218.884 20.7842 219.116 21.584 219.116 22.4795H216.04C216.04 21.7959 215.825 21.2661 215.394 20.8901C214.963 20.5073 214.358 20.3159 213.579 20.3159C212.827 20.3159 212.243 20.4766 211.826 20.7979C211.409 21.1123 211.2 21.5293 211.2 22.0488C211.2 22.5342 211.443 22.9409 211.928 23.269C212.42 23.5972 213.142 23.9048 214.092 24.1919C215.842 24.7183 217.117 25.3711 217.917 26.1504C218.716 26.9297 219.116 27.9004 219.116 29.0625C219.116 30.3545 218.627 31.3696 217.65 32.1079C216.672 32.8394 215.356 33.2051 213.702 33.2051C212.554 33.2051 211.508 32.9966 210.564 32.5796C209.621 32.1558 208.9 31.5781 208.401 30.8467C207.909 30.1152 207.663 29.2676 207.663 28.3037H210.749C210.749 29.9512 211.733 30.7749 213.702 30.7749C214.434 30.7749 215.004 30.6279 215.415 30.334C215.825 30.0332 216.03 29.6162 216.03 29.083Z" fill="black"/>
</g>
<defs>
<filter id="filter0_d" x="0" y="0" width="287" height="55" filterUnits="userSpaceOnUse" color-interpolation-filters="sRGB">
<feFlood flood-opacity="0" result="BackgroundImageFix"/>
<feColorMatrix in="SourceAlpha" type="matrix" values="0 0 0 0 0 0 0 0 0 0 0 0 0 0 0 0 0 0 127 0"/>
<feOffset dy="4"/>
<feGaussianBlur stdDeviation="2"/>
<feColorMatrix type="matrix" values="0 0 0 0 0 0 0 0 0 0 0 0 0 0 0 0 0 0 0.25 0"/>
<feBlend mode="normal" in2="BackgroundImageFix" result="effect1_dropShadow"/>
<feBlend mode="normal" in="SourceGraphic" in2="effect1_dropShadow" result="shape"/>
</filter>
</defs>
</svg>
