<svg width="279" height="47" viewBox="0 0 279 47" fill="none" xmlns="http://www.w3.org/2000/svg">
<rect width="279" height="47" rx="19" fill="#85DEEA"/>
<path d="M62.1997 29.083C62.1997 28.502 61.9946 28.0576 61.5845 27.75C61.1743 27.4355 60.436 27.1074 59.3696 26.7656C58.3032 26.417 57.459 26.0752 56.8369 25.7402C55.1416 24.8242 54.2939 23.5903 54.2939 22.0386C54.2939 21.2319 54.5195 20.5142 54.9707 19.8853C55.4287 19.2495 56.0815 18.7539 56.9292 18.3984C57.7837 18.043 58.7407 17.8652 59.8003 17.8652C60.8667 17.8652 61.8169 18.0601 62.6509 18.4497C63.4849 18.8325 64.1309 19.376 64.5889 20.0801C65.0537 20.7842 65.2861 21.584 65.2861 22.4795H62.21C62.21 21.7959 61.9946 21.2661 61.564 20.8901C61.1333 20.5073 60.5283 20.3159 59.749 20.3159C58.9971 20.3159 58.4126 20.4766 57.9956 20.7979C57.5786 21.1123 57.3701 21.5293 57.3701 22.0488C57.3701 22.5342 57.6128 22.9409 58.0981 23.269C58.5903 23.5972 59.3115 23.9048 60.2617 24.1919C62.0117 24.7183 63.2866 25.3711 64.0864 26.1504C64.8862 26.9297 65.2861 27.9004 65.2861 29.0625C65.2861 30.3545 64.7974 31.3696 63.8198 32.1079C62.8423 32.8394 61.5264 33.2051 59.8721 33.2051C58.7236 33.2051 57.6777 32.9966 56.7344 32.5796C55.791 32.1558 55.0698 31.5781 54.5708 30.8467C54.0786 30.1152 53.8325 29.2676 53.8325 28.3037H56.9189C56.9189 29.9512 57.9033 30.7749 59.8721 30.7749C60.6035 30.7749 61.1743 30.6279 61.5845 30.334C61.9946 30.0332 62.1997 29.6162 62.1997 29.083ZM78.6777 18.0703V27.9038C78.6777 29.5376 78.165 30.8296 77.1396 31.7798C76.1211 32.73 74.7266 33.2051 72.9561 33.2051C71.2129 33.2051 69.8286 32.7437 68.8032 31.8208C67.7778 30.8979 67.2549 29.6299 67.2344 28.0166V18.0703H70.3105V27.9243C70.3105 28.9019 70.543 29.6162 71.0078 30.0674C71.4795 30.5117 72.1289 30.7339 72.9561 30.7339C74.6855 30.7339 75.564 29.8247 75.5913 28.0063V18.0703H78.6777ZM84.2764 27.7397V33H81.2002V18.0703H87.0244C88.1455 18.0703 89.1299 18.2754 89.9775 18.6855C90.832 19.0957 91.4883 19.6802 91.9463 20.439C92.4043 21.1909 92.6333 22.0488 92.6333 23.0127C92.6333 24.4756 92.1309 25.6309 91.126 26.4785C90.1279 27.3193 88.7437 27.7397 86.9731 27.7397H84.2764ZM84.2764 25.248H87.0244C87.8379 25.248 88.4565 25.0566 88.8804 24.6738C89.311 24.291 89.5264 23.7441 89.5264 23.0332C89.5264 22.3018 89.311 21.7104 88.8804 21.2593C88.4497 20.8081 87.855 20.5757 87.0962 20.562H84.2764V25.248ZM103.738 26.5298H97.832V30.5288H104.764V33H94.7559V18.0703H104.743V20.562H97.832V24.1201H103.738V26.5298ZM112.095 27.5347H109.645V33H106.568V18.0703H112.116C113.879 18.0703 115.24 18.4634 116.197 19.2495C117.154 20.0356 117.632 21.1465 117.632 22.582C117.632 23.6006 117.41 24.4517 116.966 25.1353C116.528 25.812 115.862 26.3521 114.966 26.7554L118.196 32.8564V33H114.895L112.095 27.5347ZM109.645 25.043H112.126C112.898 25.043 113.497 24.8481 113.92 24.4585C114.344 24.062 114.556 23.5186 114.556 22.8281C114.556 22.124 114.354 21.5703 113.951 21.167C113.555 20.7637 112.943 20.562 112.116 20.562H109.645V25.043ZM124 18.0703L127.835 28.8984L131.649 18.0703H135.689V33H132.603V28.9189L132.911 21.8745L128.881 33H126.769L122.749 21.8848L123.057 28.9189V33H119.98V18.0703H124ZM146.989 29.9238H141.596L140.57 33H137.299L142.857 18.0703H145.708L151.296 33H148.025L146.989 29.9238ZM142.426 27.4321H146.159L144.282 21.8438L142.426 27.4321ZM158.217 27.5347H155.767V33H152.69V18.0703H158.238C160.001 18.0703 161.362 18.4634 162.319 19.2495C163.276 20.0356 163.754 21.1465 163.754 22.582C163.754 23.6006 163.532 24.4517 163.088 25.1353C162.65 25.812 161.984 26.3521 161.088 26.7554L164.318 32.8564V33H161.017L158.217 27.5347ZM155.767 25.043H158.248C159.021 25.043 159.619 24.8481 160.042 24.4585C160.466 24.062 160.678 23.5186 160.678 22.8281C160.678 22.124 160.477 21.5703 160.073 21.167C159.677 20.7637 159.065 20.562 158.238 20.562H155.767V25.043ZM170.778 27.0117L169.179 28.7344V33H166.103V18.0703H169.179V24.8379L170.532 22.9819L174.336 18.0703H178.12L172.819 24.7046L178.274 33H174.613L170.778 27.0117ZM188.415 26.5298H182.509V30.5288H189.44V33H179.433V18.0703H189.42V20.562H182.509V24.1201H188.415V26.5298ZM202.688 20.562H198.115V33H195.039V20.562H190.527V18.0703H202.688V20.562ZM212.03 29.083C212.03 28.502 211.825 28.0576 211.415 27.75C211.004 27.4355 210.266 27.1074 209.2 26.7656C208.133 26.417 207.289 26.0752 206.667 25.7402C204.972 24.8242 204.124 23.5903 204.124 22.0386C204.124 21.2319 204.35 20.5142 204.801 19.8853C205.259 19.2495 205.912 18.7539 206.759 18.3984C207.614 18.043 208.571 17.8652 209.63 17.8652C210.697 17.8652 211.647 18.0601 212.481 18.4497C213.315 18.8325 213.961 19.376 214.419 20.0801C214.884 20.7842 215.116 21.584 215.116 22.4795H212.04C212.04 21.7959 211.825 21.2661 211.394 20.8901C210.963 20.5073 210.358 20.3159 209.579 20.3159C208.827 20.3159 208.243 20.4766 207.826 20.7979C207.409 21.1123 207.2 21.5293 207.2 22.0488C207.2 22.5342 207.443 22.9409 207.928 23.269C208.42 23.5972 209.142 23.9048 210.092 24.1919C211.842 24.7183 213.117 25.3711 213.917 26.1504C214.716 26.9297 215.116 27.9004 215.116 29.0625C215.116 30.3545 214.627 31.3696 213.65 32.1079C212.672 32.8394 211.356 33.2051 209.702 33.2051C208.554 33.2051 207.508 32.9966 206.564 32.5796C205.621 32.1558 204.9 31.5781 204.401 30.8467C203.909 30.1152 203.663 29.2676 203.663 28.3037H206.749C206.749 29.9512 207.733 30.7749 209.702 30.7749C210.434 30.7749 211.004 30.6279 211.415 30.334C211.825 30.0332 212.03 29.6162 212.03 29.083Z" fill="black"/>
</svg>
