<svg width="151" height="25" viewBox="0 0 151 25" fill="none" xmlns="http://www.w3.org/2000/svg">
<path d="M20.0469 17.4375L23.1094 1.25H27.7812L22.7344 24H18.0156L14.3125 8.78125L10.6094 24H5.89062L0.84375 1.25H5.51562L8.59375 17.4062L12.3438 1.25H16.3125L20.0469 17.4375ZM44.0156 14.1406H35.0156V20.2344H45.5781V24H30.3281V1.25H45.5469V5.04688H35.0156V10.4688H44.0156V14.1406ZM53.0156 20.2344H62.9688V24H48.3281V1.25H53.0156V20.2344ZM82.5312 16.4219C82.3542 18.8698 81.4479 20.7969 79.8125 22.2031C78.1875 23.6094 76.0417 24.3125 73.375 24.3125C70.4583 24.3125 68.1615 23.3333 66.4844 21.375C64.8177 19.4062 63.9844 16.7083 63.9844 13.2812V11.8906C63.9844 9.70312 64.3698 7.77604 65.1406 6.10938C65.9115 4.44271 67.0104 3.16667 68.4375 2.28125C69.875 1.38542 71.5417 0.9375 73.4375 0.9375C76.0625 0.9375 78.1771 1.64062 79.7812 3.04688C81.3854 4.45312 82.3125 6.42708 82.5625 8.96875H77.875C77.7604 7.5 77.349 6.4375 76.6406 5.78125C75.9427 5.11458 74.875 4.78125 73.4375 4.78125C71.875 4.78125 70.7031 5.34375 69.9219 6.46875C69.151 7.58333 68.7552 9.31771 68.7344 11.6719V13.3906C68.7344 15.849 69.1042 17.6458 69.8438 18.7812C70.5938 19.9167 71.7708 20.4844 73.375 20.4844C74.8229 20.4844 75.901 20.1562 76.6094 19.5C77.3281 18.8333 77.7396 17.8073 77.8438 16.4219H82.5312ZM104.297 13.1406C104.297 15.3802 103.901 17.3438 103.109 19.0312C102.318 20.7188 101.182 22.0208 99.7031 22.9375C98.2344 23.8542 96.5469 24.3125 94.6406 24.3125C92.7552 24.3125 91.0729 23.8594 89.5938 22.9531C88.1146 22.0469 86.9688 20.7552 86.1562 19.0781C85.3438 17.3906 84.9323 15.4531 84.9219 13.2656V12.1406C84.9219 9.90104 85.3229 7.93229 86.125 6.23438C86.9375 4.52604 88.0781 3.21875 89.5469 2.3125C91.026 1.39583 92.7135 0.9375 94.6094 0.9375C96.5052 0.9375 98.1875 1.39583 99.6562 2.3125C101.135 3.21875 102.276 4.52604 103.078 6.23438C103.891 7.93229 104.297 9.89583 104.297 12.125V13.1406ZM99.5469 12.1094C99.5469 9.72396 99.1198 7.91146 98.2656 6.67188C97.4115 5.43229 96.1927 4.8125 94.6094 4.8125C93.0365 4.8125 91.8229 5.42708 90.9688 6.65625C90.1146 7.875 89.6823 9.66667 89.6719 12.0312V13.1406C89.6719 15.4635 90.099 17.2656 90.9531 18.5469C91.8073 19.8281 93.0365 20.4688 94.6406 20.4688C96.2135 20.4688 97.4219 19.8542 98.2656 18.625C99.1094 17.3854 99.5365 15.5833 99.5469 13.2188V12.1094ZM113.828 1.25L119.672 17.75L125.484 1.25H131.641V24H126.938V17.7812L127.406 7.04688L121.266 24H118.047L111.922 7.0625L112.391 17.7812V24H107.703V1.25H113.828ZM149.422 14.1406H140.422V20.2344H150.984V24H135.734V1.25H150.953V5.04688H140.422V10.4688H149.422V14.1406Z" fill="black"/>
</svg>
